<svg width="106" height="26" viewBox="0 0 106 26" fill="none" xmlns="http://www.w3.org/2000/svg">
<path d="M5.5625 2.25V25H0.09375V2.25H5.5625ZM14.3438 11.7031V25H9.07812V8.09375H14.0156L14.3438 11.7031ZM13.7188 15.9688L12.4844 16C12.4844 14.7083 12.6406 13.5573 12.9531 12.5469C13.2656 11.526 13.7083 10.6615 14.2812 9.95312C14.8542 9.24479 15.5365 8.70833 16.3281 8.34375C17.1302 7.96875 18.0208 7.78125 19 7.78125C19.7812 7.78125 20.4948 7.89583 21.1406 8.125C21.7969 8.35417 22.3594 8.72396 22.8281 9.23438C23.3073 9.74479 23.6719 10.4219 23.9219 11.2656C24.1823 12.099 24.3125 13.1302 24.3125 14.3594V25H19.0156V14.3438C19.0156 13.6667 18.9219 13.151 18.7344 12.7969C18.5469 12.4323 18.276 12.1823 17.9219 12.0469C17.5677 11.9115 17.1354 11.8438 16.625 11.8438C16.0833 11.8438 15.625 11.9479 15.25 12.1562C14.875 12.3646 14.5729 12.6562 14.3438 13.0312C14.125 13.3958 13.9635 13.8281 13.8594 14.3281C13.7656 14.8281 13.7188 15.375 13.7188 15.9688ZM33.6875 25H28.3906V6.71875C28.3906 5.40625 28.6562 4.30208 29.1875 3.40625C29.7188 2.51042 30.4688 1.83333 31.4375 1.375C32.4062 0.90625 33.5521 0.671875 34.875 0.671875C35.3333 0.671875 35.7656 0.703125 36.1719 0.765625C36.5781 0.828125 36.974 0.90625 37.3594 1L37.375 4.875C37.1875 4.82292 36.9948 4.78646 36.7969 4.76562C36.599 4.74479 36.3542 4.73438 36.0625 4.73438C35.5521 4.73438 35.1198 4.8125 34.7656 4.96875C34.4115 5.11458 34.1406 5.33854 33.9531 5.64062C33.776 5.93229 33.6875 6.29167 33.6875 6.71875V25ZM36.9688 8.09375V11.75H25.9531V8.09375H36.9688ZM48.7344 20.8906V8.09375H54.0156V25H49.0781L48.7344 20.8906ZM49.2344 17.4531L50.6094 17.4219C50.6094 18.5573 50.474 19.6094 50.2031 20.5781C49.9323 21.5365 49.5312 22.3698 49 23.0781C48.4792 23.7865 47.8333 24.3385 47.0625 24.7344C46.3021 25.1198 45.4219 25.3125 44.4219 25.3125C43.5885 25.3125 42.8229 25.1979 42.125 24.9688C41.4375 24.7292 40.8438 24.3594 40.3438 23.8594C39.8438 23.349 39.4531 22.6979 39.1719 21.9062C38.901 21.1042 38.7656 20.1458 38.7656 19.0312V8.09375H44.0312V19.0625C44.0312 19.4375 44.0781 19.7604 44.1719 20.0312C44.2656 20.3021 44.401 20.5312 44.5781 20.7188C44.7552 20.8958 44.974 21.0312 45.2344 21.125C45.5052 21.2083 45.8125 21.25 46.1562 21.25C46.9479 21.25 47.5677 21.0833 48.0156 20.75C48.4635 20.4167 48.776 19.9635 48.9531 19.3906C49.1406 18.8177 49.2344 18.1719 49.2344 17.4531ZM70.8281 20.9375V25H57.7344V20.9375H70.8281ZM70.6719 10.9375L60.0938 25H56.4844V22.0625L67.0469 8.09375H70.6719V10.9375ZM68.9375 8.09375V12.1562H56.7969V8.09375H68.9375ZM78.9844 8.09375V25H73.7031V8.09375H78.9844ZM73.3906 3.73438C73.3906 2.98438 73.6615 2.36979 74.2031 1.89062C74.7448 1.41146 75.4479 1.17188 76.3125 1.17188C77.1771 1.17188 77.8802 1.41146 78.4219 1.89062C78.9635 2.36979 79.2344 2.98438 79.2344 3.73438C79.2344 4.48438 78.9635 5.09896 78.4219 5.57812C77.8802 6.05729 77.1771 6.29688 76.3125 6.29688C75.4479 6.29688 74.7448 6.05729 74.2031 5.57812C73.6615 5.09896 73.3906 4.48438 73.3906 3.73438ZM89.375 21.25C89.8646 21.25 90.2812 21.1615 90.625 20.9844C90.9792 20.7969 91.2448 20.5365 91.4219 20.2031C91.6094 19.8594 91.6979 19.4479 91.6875 18.9688H96.6406C96.651 20.2396 96.3385 21.3542 95.7031 22.3125C95.0781 23.2604 94.224 24 93.1406 24.5312C92.0677 25.0521 90.8542 25.3125 89.5 25.3125C88.1771 25.3125 87.0208 25.099 86.0312 24.6719C85.0417 24.2344 84.2135 23.6302 83.5469 22.8594C82.8906 22.0781 82.3958 21.1667 82.0625 20.125C81.7396 19.0833 81.5781 17.9531 81.5781 16.7344V16.375C81.5781 15.1562 81.7396 14.026 82.0625 12.9844C82.3958 11.9323 82.8906 11.0208 83.5469 10.25C84.2135 9.46875 85.0365 8.86458 86.0156 8.4375C87.0052 8 88.1562 7.78125 89.4688 7.78125C90.875 7.78125 92.1146 8.04688 93.1875 8.57812C94.2708 9.10938 95.1198 9.88021 95.7344 10.8906C96.349 11.901 96.651 13.125 96.6406 14.5625H91.6875C91.6979 14.0521 91.6198 13.5938 91.4531 13.1875C91.2865 12.7812 91.026 12.4583 90.6719 12.2188C90.3281 11.9688 89.8854 11.8438 89.3438 11.8438C88.8021 11.8438 88.3646 11.9635 88.0312 12.2031C87.6979 12.4427 87.4427 12.776 87.2656 13.2031C87.099 13.6198 86.9844 14.099 86.9219 14.6406C86.8698 15.1823 86.8438 15.7604 86.8438 16.375V16.7344C86.8438 17.3594 86.8698 17.9479 86.9219 18.5C86.9844 19.0417 87.1042 19.5208 87.2812 19.9375C87.4583 20.3438 87.7135 20.6667 88.0469 20.9062C88.3802 21.1354 88.8229 21.25 89.375 21.25ZM99.2344 22.5312C99.2344 21.7812 99.5052 21.1562 100.047 20.6562C100.589 20.1458 101.286 19.8906 102.141 19.8906C103.005 19.8906 103.703 20.1458 104.234 20.6562C104.776 21.1562 105.047 21.7812 105.047 22.5312C105.047 23.2812 104.776 23.9115 104.234 24.4219C103.703 24.9219 103.005 25.1719 102.141 25.1719C101.286 25.1719 100.589 24.9219 100.047 24.4219C99.5052 23.9115 99.2344 23.2812 99.2344 22.5312Z" fill="#2B2D42"/>
</svg>
