<svg width="360" height="387" viewBox="0 0 360 387" fill="none" xmlns="http://www.w3.org/2000/svg">
<g clip-path="url(#clip0_50_3)">
<path d="M211.409 99.3508H200.736C200.192 99.35 199.67 99.0757 199.285 98.5882C198.901 98.1006 198.684 97.4395 198.684 96.75V83.2258C198.684 82.5363 198.901 81.8752 199.285 81.3876C199.67 80.9001 200.192 80.6258 200.736 80.625H211.409C211.953 80.6258 212.475 80.9001 212.86 81.3876C213.245 81.8752 213.461 82.5363 213.462 83.2258V96.75C213.461 97.4395 213.245 98.1006 212.86 98.5882C212.475 99.0757 211.953 99.35 211.409 99.3508ZM200.736 81.6653C200.41 81.6658 200.097 81.8303 199.866 82.1229C199.635 82.4154 199.505 82.8121 199.505 83.2258V96.75C199.505 97.1637 199.635 97.5604 199.866 97.8529C200.097 98.1455 200.41 98.31 200.736 98.3105H211.409C211.736 98.31 212.049 98.1455 212.28 97.8529C212.51 97.5604 212.64 97.1637 212.641 96.75V83.2258C212.64 82.8121 212.51 82.4154 212.28 82.1229C212.049 81.8303 211.736 81.6658 211.409 81.6653H200.736Z" fill="#E6E6E6"/>
<path d="M87.0267 18.7258H76.3537C75.8095 18.725 75.2878 18.4508 74.903 17.9632C74.5182 17.4756 74.3018 16.8145 74.3011 16.125V2.60081C74.3018 1.91127 74.5182 1.2502 74.903 0.76263C75.2878 0.275055 75.8095 0.000788851 76.3537 0H87.0267C87.5709 0.000788851 88.0926 0.275055 88.4774 0.76263C88.8622 1.2502 89.0786 1.91127 89.0793 2.60081V16.125C89.0786 16.8145 88.8622 17.4756 88.4774 17.9632C88.0926 18.4508 87.5709 18.725 87.0267 18.7258ZM76.3537 1.04032C76.0272 1.04077 75.7141 1.20533 75.4832 1.49788C75.2524 1.79043 75.1225 2.18708 75.1222 2.60081V16.125C75.1225 16.5387 75.2524 16.9354 75.4832 17.2279C75.7141 17.5205 76.0272 17.685 76.3537 17.6855H87.0267C87.3533 17.685 87.6663 17.5205 87.8972 17.2279C88.128 16.9354 88.2579 16.5387 88.2583 16.125V2.60081C88.2579 2.18708 88.128 1.79043 87.8972 1.49788C87.6663 1.20533 87.3533 1.04077 87.0267 1.04032H76.3537Z" fill="#E6E6E6"/>
<path d="M204.841 92.5887H194.168C193.624 92.5879 193.102 92.3137 192.717 91.8261C192.333 91.3385 192.116 90.6775 192.115 89.9879V76.4637C192.116 75.7742 192.333 75.1131 192.717 74.6255C193.102 74.138 193.624 73.8637 194.168 73.8629H204.841C205.385 73.8637 205.907 74.138 206.292 74.6255C206.677 75.1131 206.893 75.7742 206.894 76.4637V89.9879C206.893 90.6775 206.677 91.3385 206.292 91.8261C205.907 92.3137 205.385 92.5879 204.841 92.5887ZM194.168 74.9032C193.841 74.9037 193.528 75.0682 193.298 75.3608C193.067 75.6533 192.937 76.05 192.936 76.4637V89.9879C192.937 90.4016 193.067 90.7983 193.298 91.0908C193.528 91.3834 193.841 91.5479 194.168 91.5484H204.841C205.168 91.5479 205.481 91.3834 205.711 91.0908C205.942 90.7983 206.072 90.4016 206.073 89.9879V76.4637C206.072 76.05 205.942 75.6533 205.711 75.3608C205.481 75.0682 205.168 74.9037 204.841 74.9032H194.168Z" fill="#E6E6E6"/>
<path d="M19.2936 205.464H8.62051C8.07634 205.463 7.55464 205.189 7.16985 204.701C6.78506 204.214 6.56862 203.552 6.56799 202.863V189.339C6.56862 188.649 6.78506 187.988 7.16985 187.501C7.55464 187.013 8.07634 186.739 8.62051 186.738H19.2936C19.8378 186.739 20.3595 187.013 20.7443 187.501C21.129 187.988 21.3455 188.649 21.3461 189.339V202.863C21.3455 203.552 21.129 204.214 20.7443 204.701C20.3595 205.189 19.8378 205.463 19.2936 205.464ZM8.62051 187.778C8.294 187.779 7.98097 187.943 7.75009 188.236C7.51922 188.528 7.38936 188.925 7.389 189.339V202.863C7.38936 203.277 7.51922 203.673 7.75009 203.966C7.98097 204.258 8.294 204.423 8.62051 204.423H19.2936C19.6201 204.423 19.9331 204.258 20.164 203.966C20.3949 203.673 20.5247 203.277 20.5251 202.863V189.339C20.5247 188.925 20.3949 188.528 20.164 188.236C19.9331 187.943 19.6201 187.779 19.2936 187.778H8.62051Z" fill="#E6E6E6"/>
<path d="M12.7256 198.702H2.05252C1.50835 198.701 0.986642 198.427 0.601856 197.939C0.217069 197.451 0.000622549 196.79 0 196.101V182.577C0.000622549 181.887 0.217069 181.226 0.601856 180.738C0.986642 180.251 1.50835 179.977 2.05252 179.976H12.7256C13.2698 179.977 13.7915 180.251 14.1763 180.738C14.561 181.226 14.7775 181.887 14.7781 182.577V196.101C14.7775 196.79 14.561 197.451 14.1763 197.939C13.7915 198.427 13.2698 198.701 12.7256 198.702ZM2.05252 181.016C1.72601 181.017 1.41298 181.181 1.1821 181.474C0.951225 181.766 0.821363 182.163 0.821007 182.577V196.101C0.821363 196.515 0.951225 196.911 1.1821 197.204C1.41298 197.496 1.72601 197.661 2.05252 197.661H12.7256C13.0521 197.661 13.3651 197.496 13.596 197.204C13.8269 196.911 13.9568 196.515 13.9571 196.101V182.577C13.9568 182.163 13.8269 181.766 13.596 181.474C13.3651 181.181 13.0521 181.017 12.7256 181.016H2.05252Z" fill="#E6E6E6"/>
<path d="M37.9426 44.754H136.716C141.482 44.754 146.107 46.8088 149.829 50.5807C153.552 54.3525 156.151 59.617 157.199 65.5087L207.108 346.015C207.652 349.074 207.661 352.248 207.136 355.312C206.61 358.377 205.561 361.259 204.063 363.756C202.566 366.253 200.655 368.305 198.465 369.767C196.276 371.23 193.86 372.067 191.388 372.222L89.848 378.561C84.4109 378.9 79.062 376.722 74.7995 372.431C70.537 368.14 67.6521 362.031 66.6831 355.243L38.3721 156.923L36.2659 157.685L30.8488 120.096L33.0169 119.409L25.1143 64.0506C24.7758 61.6795 24.8543 59.243 25.3442 56.9147C25.8341 54.5864 26.7233 52.4238 27.9484 50.5809C29.1735 48.738 30.7044 47.2603 32.4319 46.2531C34.1594 45.2459 36.041 44.734 37.9426 44.754Z" fill="#3F3D56"/>
<path d="M123.713 50.8009H135.242C138.554 50.8009 141.765 52.2358 144.344 54.8675C146.923 57.4991 148.714 61.1692 149.42 65.2684L197.325 343.486C197.601 345.088 197.6 346.746 197.324 348.348C197.048 349.949 196.502 351.457 195.724 352.766C194.945 354.076 193.953 355.158 192.815 355.937C191.677 356.717 190.419 357.176 189.128 357.283L87.9168 365.689C85.0615 365.926 82.2372 364.822 79.9829 362.589C77.7287 360.356 76.2023 357.149 75.695 353.581L34.8173 66.0157C34.5527 64.1545 34.6137 62.2424 34.996 60.4143C35.3784 58.5862 36.0726 56.8867 37.0299 55.4357C37.9871 53.9847 39.1841 52.8177 40.5361 52.0168C41.8882 51.216 43.3625 50.8009 44.855 50.8009H55.7929C56.8515 50.8009 57.8806 51.2431 58.7209 52.0591C59.5611 52.8751 60.1657 54.0193 60.4409 55.3146C60.6839 56.4581 61.2175 57.4682 61.9593 58.1886C62.7011 58.909 63.6097 59.2994 64.5442 59.2994H116.47C118.3 59.2994 120.063 58.424 121.406 56.8484C122.748 55.2728 123.572 53.113 123.713 50.8009Z" fill="white"/>
<path d="M42.6924 98.1056H152.492L164.189 164.891L52.955 167.492L42.6924 98.1056Z" fill="#6C63FF"/>
<path d="M146.96 224.582H172.81L173.631 230.852H147.781L146.96 224.582Z" fill="#6C63FF"/>
<path d="M167.992 192.593L58.3613 195.535L58.3723 196.188L168.003 193.247L167.992 192.593Z" fill="#2F2E41"/>
<path d="M171.345 211.878L59.6506 215.146L59.6625 215.8L171.357 212.532L171.345 211.878Z" fill="#2F2E41"/>
<path d="M157.633 291.682H183.483L184.304 297.953H158.454L157.633 291.682Z" fill="#6C63FF"/>
<path d="M178.665 259.694L69.0344 262.635L69.0453 263.289L178.676 260.347L178.665 259.694Z" fill="#2F2E41"/>
<path d="M182.018 278.979L70.3237 282.247L70.3356 282.901L182.03 279.632L182.018 278.979Z" fill="#2F2E41"/>
<path d="M252.689 380.346L247.798 380.345L245.471 356.44L252.69 356.441L252.689 380.346Z" fill="#A0616A"/>
<path d="M253.937 386.353L238.166 386.352V386.1C238.166 384.037 238.813 382.058 239.964 380.6C241.115 379.141 242.676 378.322 244.304 378.322L253.937 378.322L253.937 386.353Z" fill="#2F2E41"/>
<path d="M313.45 376.287L308.69 377.708L302.1 355.115L309.127 353.018L313.45 376.287Z" fill="#A0616A"/>
<path d="M315.752 381.773L300.4 386.353L300.355 386.107C299.982 384.099 300.253 381.986 301.11 380.231C301.966 378.477 303.338 377.226 304.923 376.753L314.299 373.955L315.752 381.773Z" fill="#2F2E41"/>
<path d="M251.69 279.517C251.699 278.271 251.99 248.872 258.35 237.755L258.444 237.591L280.608 241.466L280.113 247.636C281.087 248.838 288.756 258.991 290.97 283.035L314.495 363.096L303.558 364.356L271.184 276.959L254.052 371.959H243.21L251.69 279.517Z" fill="#2F2E41"/>
<path d="M255.754 238.84L257.92 224.427C257.496 223.735 255.617 220.413 256.035 216.519C256.308 213.978 257.505 211.75 259.594 209.895L265.209 193.291L265.285 193.235C265.663 192.953 274.604 186.401 279.479 192.583C279.601 192.702 291.602 204.774 286.783 221.059L280.833 243.679L255.754 238.84Z" fill="#CCCCCC"/>
<path d="M248.216 258.339C248.8 258.254 249.363 258.009 249.864 257.619C250.365 257.229 250.792 256.705 251.116 256.083C251.44 255.461 251.652 254.756 251.738 254.019C251.824 253.282 251.781 252.53 251.613 251.816L263.21 241.229L256.268 237.883L246.319 248.45C245.392 248.888 244.623 249.742 244.159 250.85C243.695 251.958 243.567 253.243 243.801 254.462C244.035 255.681 244.613 256.749 245.427 257.463C246.241 258.178 247.233 258.49 248.216 258.339Z" fill="#A0616A"/>
<path d="M250.347 241.212L268.052 223.536L262.789 200.749C262.541 199.67 262.471 198.538 262.583 197.423C262.695 196.308 262.987 195.234 263.441 194.269C263.861 193.359 264.427 192.57 265.102 191.952C265.777 191.335 266.546 190.903 267.36 190.685C270.391 189.872 273.142 192.022 275.536 197.077L275.554 197.123C275.95 198.35 285.174 227.241 278.131 233.419C271.242 239.463 255.266 248.261 255.106 248.349L254.918 248.452L250.347 241.212Z" fill="#CCCCCC"/>
<path d="M273.878 186.573C279.802 186.573 284.604 180.489 284.604 172.983C284.604 165.477 279.802 159.392 273.878 159.392C267.955 159.392 263.153 165.477 263.153 172.983C263.153 180.489 267.955 186.573 273.878 186.573Z" fill="#A0616A"/>
<path d="M290.693 168.131C295.933 168.131 300.182 162.748 300.182 156.108C300.182 149.468 295.933 144.085 290.693 144.085C285.453 144.085 281.205 149.468 281.205 156.108C281.205 162.748 285.453 168.131 290.693 168.131Z" fill="#2F2E41"/>
<path d="M298.878 166.064C297.649 167.189 296.227 167.924 294.728 168.209C293.23 168.495 291.699 168.321 290.264 167.703C288.83 167.085 287.533 166.04 286.482 164.657C285.431 163.273 284.657 161.591 284.225 159.751C284.388 161.4 284.82 162.988 285.493 164.415C286.165 165.842 287.064 167.077 288.132 168.042C289.2 169.006 290.415 169.68 291.699 170.02C292.982 170.36 294.308 170.359 295.592 170.017C296.875 169.675 298.089 169 299.156 168.033C300.224 167.067 301.121 165.831 301.792 164.403C302.464 162.975 302.894 161.386 303.056 159.737C303.218 158.087 303.109 156.413 302.734 154.82C302.947 156.96 302.701 159.134 302.022 161.112C301.344 163.09 300.257 164.801 298.878 166.064Z" fill="#2F2E41"/>
<path d="M261.432 166.077C263.088 162.32 263.722 160.75 265.858 158.465C267.746 156.444 270.07 155.85 271.943 157.765C274.16 156.552 276.627 156.276 278.976 156.981C281.326 157.685 283.434 159.331 284.987 161.674C286.54 164.017 287.455 166.932 287.597 169.987C287.738 173.041 287.098 176.072 285.771 178.629C284.445 181.186 282.503 183.132 280.234 184.179C277.965 185.226 275.49 185.318 273.177 184.441C270.863 183.564 268.835 181.764 267.393 179.31C265.951 176.855 265.172 173.877 265.172 170.817C265.174 170.28 265.2 169.743 265.249 169.21C263.62 168.92 263.06 166.367 261.432 166.077Z" fill="#2F2E41"/>
<path d="M359.589 387H203.188C203.079 387 202.974 386.945 202.897 386.848C202.82 386.75 202.777 386.618 202.777 386.48C202.777 386.342 202.82 386.21 202.897 386.112C202.974 386.015 203.079 385.96 203.188 385.96H359.589C359.698 385.96 359.803 386.015 359.88 386.112C359.957 386.21 360 386.342 360 386.48C360 386.618 359.957 386.75 359.88 386.848C359.803 386.945 359.698 387 359.589 387Z" fill="#3F3D56"/>
</g>
<defs>
<clipPath id="clip0_50_3">
<rect width="360" height="387" fill="white"/>
</clipPath>
</defs>
</svg>
